<?xml version="1.0" standalone="no"?>
<!DOCTYPE svg PUBLIC "-//W3C//DTD SVG 20010904//EN"
 "http://www.w3.org/TR/2001/REC-SVG-20010904/DTD/svg10.dtd">
<svg version="1.0" xmlns="http://www.w3.org/2000/svg"
 width="660.000000pt" height="660.000000pt" viewBox="0 0 660.000000 660.000000"
 preserveAspectRatio="xMidYMid meet">

<g transform="translate(0.000000,660.000000) scale(0.100000,-0.100000)"
fill="#000000" stroke="none">
<path d="M5498 5465 c-2 -3 -29 -9 -58 -15 -37 -7 -64 -20 -85 -39 -21 -20
-39 -28 -63 -27 -20 0 -32 -4 -32 -11 0 -7 -5 -13 -10 -13 -6 0 -8 -11 -4 -25
4 -15 2 -25 -5 -25 -6 0 -11 -9 -11 -21 0 -15 5 -19 16 -15 12 5 14 1 9 -17
-4 -12 -8 -24 -8 -27 -2 -10 26 -85 34 -94 5 -6 9 10 10 40 1 65 17 30 19 -41
0 -27 7 -59 15 -69 8 -11 15 -35 15 -53 0 -18 4 -33 10 -33 5 0 13 -15 18 -32
6 -18 13 -41 17 -50 6 -14 2 -18 -18 -18 -21 0 -134 -53 -147 -69 -10 -12 -69
-51 -78 -51 -5 0 -17 -9 -27 -20 -13 -14 -31 -20 -64 -20 -41 0 -50 -5 -94
-47 -39 -40 -49 -45 -58 -33 -5 8 -7 29 -4 46 3 18 0 43 -6 57 -9 20 -8 30 6
51 13 19 15 37 11 68 -4 24 -7 70 -8 103 -1 33 -6 63 -11 67 -6 3 -11 21 -12
40 -6 83 -18 120 -40 128 -13 5 -32 6 -44 3 -17 -4 -21 -1 -21 20 0 33 -22 49
-54 41 -21 -5 -28 -1 -37 20 -13 27 -33 34 -44 16 -4 -6 -21 -8 -39 -5 -24 5
-36 2 -51 -15 -10 -11 -33 -28 -51 -36 -17 -8 -36 -26 -42 -39 -7 -14 -20 -25
-31 -25 -14 0 -25 -16 -41 -57 -13 -32 -28 -63 -35 -68 -7 -6 -12 -30 -11 -55
1 -40 -2 -45 -22 -48 -14 -2 -22 -9 -20 -20 2 -10 -6 -18 -22 -22 -23 -5 -25
-11 -28 -68 -3 -57 -5 -62 -22 -57 -23 7 -26 -5 -7 -24 10 -11 9 -13 -3 -9 -8
3 -16 15 -18 27 -2 12 -9 20 -15 18 -8 -2 -13 -33 -14 -83 -3 -138 -4 -147
-14 -166 -15 -27 -36 -22 -53 14 -18 36 -20 58 -6 58 6 0 4 10 -4 23 -8 12
-17 33 -21 46 -6 18 -4 22 6 15 8 -5 18 -9 23 -9 5 0 12 -9 17 -20 7 -19 8
-19 8 3 1 12 -8 31 -19 42 -20 20 -20 20 18 21 l37 0 -50 20 c-57 23 -84 46
-89 76 -3 12 -10 31 -16 43 -6 12 -10 23 -8 25 9 9 47 -9 51 -24 3 -9 5 3 6
27 1 26 6 42 14 42 6 0 3 6 -8 12 -10 6 -30 24 -43 40 -13 16 -43 40 -67 53
-30 18 -51 42 -73 83 -46 87 -61 96 -151 100 l-76 4 -33 -36 c-18 -20 -37 -36
-43 -36 -5 0 -9 -6 -7 -13 2 -7 -7 -26 -20 -42 -53 -68 -72 -108 -78 -160 -4
-30 -13 -60 -20 -66 -8 -6 -11 -16 -7 -22 3 -5 -2 -16 -12 -24 -11 -7 -14 -13
-7 -13 6 0 23 12 38 28 28 28 24 17 -8 -30 -22 -32 -14 -37 15 -10 19 16 20
16 9 -3 -5 -11 -22 -31 -36 -44 l-26 -25 -78 23 c-42 13 -97 28 -120 33 -47
11 -128 3 -137 -13 -11 -16 -55 -11 -55 7 0 14 -7 16 -40 11 -31 -4 -40 -2
-40 9 0 25 44 81 59 76 10 -3 12 0 8 12 -4 10 2 21 18 32 13 9 27 24 30 34 5
15 37 61 74 106 17 21 21 69 8 95 -12 22 -12 29 -1 44 12 16 12 21 -1 35 -8 9
-25 36 -37 59 -21 38 -30 45 -82 62 -33 10 -63 23 -67 30 -6 10 -13 10 -34 1
-21 -10 -31 -10 -41 -1 -11 9 -20 9 -38 -1 -13 -6 -33 -9 -45 -5 -14 4 -21 2
-21 -7 0 -8 -13 -19 -29 -25 -41 -15 -59 -49 -66 -118 -3 -33 -8 -76 -11 -95
-14 -79 -5 -154 24 -198 14 -21 13 -29 -2 -79 -19 -59 -17 -58 -88 -37 -10 3
-18 1 -18 -5 0 -6 5 -11 10 -11 6 0 10 -9 10 -20 0 -18 -7 -20 -83 -20 -54 0
-89 -5 -102 -14 -34 -23 -156 -63 -235 -76 -41 -7 -83 -17 -93 -22 -24 -12
-34 16 -17 47 7 14 10 39 7 58 -3 19 -1 39 5 45 6 6 6 28 -1 63 -14 76 -38
128 -64 140 -13 6 -27 20 -32 32 -7 16 -23 24 -55 30 -76 15 -183 17 -220 5
-19 -7 -43 -11 -52 -9 -11 1 -26 -11 -39 -34 -12 -19 -30 -40 -40 -46 -11 -5
-17 -14 -14 -19 3 -5 -1 -33 -9 -62 -17 -62 -22 -122 -12 -160 4 -14 3 -34 -2
-45 -5 -10 -6 -27 -1 -38 4 -11 8 -15 9 -10 1 6 3 15 5 20 1 6 3 25 3 44 1 19
5 32 8 29 11 -12 10 -86 -2 -102 -12 -17 -14 -16 -42 4 -23 17 -283 93 -342
99 -2 1 1 6 8 13 7 7 12 18 12 25 0 8 14 43 30 79 17 35 33 78 37 94 3 16 9
27 14 24 5 -3 10 7 11 23 0 15 2 46 3 68 1 22 5 48 9 57 4 9 5 22 1 29 -4 6
-2 15 5 19 9 6 3 17 -24 40 -20 18 -39 42 -42 54 -6 24 -86 68 -108 60 -8 -3
-17 -1 -20 5 -4 6 -13 8 -21 5 -7 -3 -21 -1 -31 4 -11 6 -25 5 -43 -4 -14 -8
-33 -11 -42 -9 -10 3 -19 -1 -23 -10 -3 -8 -11 -15 -18 -15 -20 -1 -60 -38
-63 -58 -4 -29 -17 -62 -25 -62 -4 0 -6 -25 -5 -55 1 -31 -1 -58 -5 -60 -9 -6
12 -75 22 -75 5 0 8 -11 8 -25 0 -14 5 -25 11 -25 20 0 4 -70 -33 -145 -33
-68 -35 -70 -77 -76 -32 -4 -50 -14 -66 -32 -15 -20 -30 -27 -57 -27 -82 0
-136 -40 -207 -154 -30 -47 -57 -86 -61 -86 -4 0 -17 -22 -29 -50 -12 -27 -26
-50 -31 -50 -22 0 -42 -52 -45 -117 -2 -37 -8 -92 -14 -122 -6 -29 -11 -70
-11 -89 0 -22 -8 -44 -21 -58 -16 -17 -22 -44 -30 -124 -7 -70 -19 -124 -39
-172 -24 -57 -27 -75 -18 -99 5 -16 14 -29 19 -29 19 0 8 -27 -21 -48 -16 -12
-48 -50 -69 -85 -22 -34 -47 -69 -55 -77 -18 -18 -11 -60 10 -60 7 0 17 8 23
18 9 16 10 16 16 0 8 -21 25 -24 25 -5 0 6 10 32 21 57 19 40 32 50 103 85 76
39 81 43 93 85 8 26 29 61 53 85 22 22 40 46 40 53 0 6 12 19 27 29 37 24 102
129 109 175 4 21 11 41 17 45 6 4 7 -7 3 -30 -4 -21 -2 -37 3 -39 7 -2 3 -27
-8 -64 -11 -33 -23 -108 -26 -165 -7 -103 -7 -105 19 -136 28 -33 36 -96 16
-132 -22 -42 -39 -327 -36 -615 l3 -289 23 -19 c15 -12 34 -18 48 -15 23 4 24
3 18 -37 -24 -161 -17 -288 30 -526 13 -69 24 -145 24 -169 0 -41 -4 -49 -52
-94 -41 -38 -57 -47 -75 -42 -18 4 -26 0 -35 -20 -7 -15 -28 -31 -54 -41 -23
-9 -51 -26 -62 -38 -10 -11 -29 -29 -41 -38 -51 -42 -6 -91 83 -89 55 1 152
27 295 80 123 46 168 85 126 108 -23 13 -45 226 -34 343 11 126 17 157 39 200
31 61 34 105 15 240 l-18 127 23 32 c12 18 23 45 24 61 2 44 14 46 22 4 8 -47
37 -81 76 -89 22 -5 35 -19 56 -58 24 -47 27 -65 32 -187 5 -123 8 -139 32
-180 32 -53 85 -252 94 -349 5 -55 2 -81 -15 -134 -11 -37 -21 -71 -21 -78 0
-21 114 -165 157 -198 57 -44 125 -64 173 -51 29 8 44 7 66 -5 53 -28 147 -12
196 32 25 22 24 107 -2 180 -11 32 -20 58 -20 60 0 1 16 -8 36 -22 72 -49 187
-39 198 17 3 13 7 91 10 174 5 127 3 165 -14 241 -13 61 -22 151 -26 274 -6
177 -6 188 19 282 15 53 45 144 67 202 22 58 58 151 79 208 104 271 125 520
57 688 -26 65 -25 89 4 89 21 0 54 46 46 66 -3 7 9 41 27 75 29 57 39 66 117
111 46 26 88 48 93 48 5 0 6 -18 2 -39 -3 -22 -2 -56 4 -76 8 -29 6 -49 -10
-97 -10 -33 -19 -75 -19 -93 0 -18 -10 -54 -21 -81 -20 -45 -21 -55 -11 -149
6 -55 15 -122 21 -150 6 -27 15 -111 21 -185 19 -250 25 -296 45 -326 18 -26
19 -45 18 -178 -2 -115 1 -153 12 -169 20 -29 -1 -65 -75 -123 -33 -26 -60
-53 -60 -60 0 -19 -108 -104 -141 -111 -15 -3 -46 -25 -70 -49 l-43 -43 12
-48 c8 -36 8 -49 -1 -52 -7 -2 -27 -19 -46 -38 -32 -32 -33 -34 -17 -56 9 -12
27 -43 41 -68 13 -26 33 -49 44 -52 28 -7 61 -78 73 -156 11 -74 33 -121 88
-196 72 -97 119 -108 159 -36 22 41 23 47 12 95 -15 59 -39 170 -46 205 -2 14
-2 36 2 50 6 23 7 24 14 6 7 -17 8 -17 8 6 1 15 -6 32 -15 40 -13 11 -13 14
-1 21 8 4 18 24 21 43 6 30 49 85 67 85 4 0 9 -24 13 -52 19 -158 20 -162 47
-175 19 -9 30 -25 38 -57 6 -25 15 -48 21 -51 5 -3 10 -32 10 -65 0 -63 6 -70
62 -70 20 0 48 -14 86 -44 49 -38 67 -46 135 -57 137 -21 249 1 255 51 5 49
-29 92 -123 155 -51 34 -96 72 -103 88 -7 15 -27 34 -43 43 l-30 15 27 32 c23
27 25 36 19 77 -4 25 -11 108 -15 185 -5 77 -12 159 -15 183 -5 30 -4 42 5 42
23 0 72 43 86 76 8 18 30 45 49 60 35 26 35 27 35 106 l0 80 40 37 40 36 0 95
c0 64 4 102 14 115 7 11 17 52 22 90 11 89 6 427 -6 439 -6 6 -7 60 -3 131 6
121 6 122 -17 128 -20 5 -22 10 -16 50 5 30 2 59 -10 92 -11 34 -14 62 -9 94
4 25 7 100 6 165 -1 66 3 140 8 165 6 25 16 82 23 126 13 78 13 79 29 54 15
-23 15 -32 -3 -124 -28 -142 -23 -169 57 -332 63 -126 68 -144 71 -208 1 -38
-3 -79 -9 -90 -33 -62 -59 -205 -63 -345 -6 -166 -1 -182 62 -217 41 -23 41
-23 63 -130 13 -60 36 -148 51 -198 35 -114 44 -176 41 -296 -2 -77 6 -142 41
-335 47 -260 53 -375 24 -432 -9 -17 -41 -52 -71 -78 -51 -44 -55 -51 -55 -91
0 -41 2 -45 37 -60 43 -18 106 -13 132 11 14 13 22 14 49 4 18 -7 35 -20 38
-30 14 -47 145 -75 192 -42 41 28 29 65 -38 123 -33 29 -67 66 -75 81 -21 41
-19 166 6 280 11 52 26 129 34 170 8 41 23 118 35 170 11 54 20 133 20 183 0
60 5 98 16 118 8 17 18 53 21 82 3 29 18 92 34 141 16 49 43 147 61 218 l31
128 37 0 c20 0 45 6 56 14 40 29 17 272 -38 392 -10 22 -21 76 -24 120 -6 82
-24 154 -54 214 -10 19 -20 53 -23 75 -5 33 -2 46 17 70 l24 30 36 -79 c20
-43 47 -109 61 -147 40 -111 53 -132 79 -125 17 4 33 -6 74 -47 l51 -52 -10
-70 c-17 -121 22 -320 118 -598 60 -173 65 -194 55 -226 -14 -49 -75 -217 -94
-262 -9 -20 -19 -47 -23 -60 -4 -13 -16 -41 -26 -61 -11 -21 -23 -76 -28 -124
-7 -70 -16 -100 -45 -156 -20 -38 -36 -82 -36 -98 0 -31 22 -60 46 -60 21 0
17 -31 -16 -132 -39 -117 -40 -169 -4 -197 54 -43 156 -15 190 51 19 36 44
150 44 201 0 33 4 39 34 54 56 26 66 15 66 -75 0 -89 8 -102 76 -125 38 -14
39 -15 45 -73 7 -60 36 -136 71 -187 46 -65 166 -89 213 -42 27 26 30 51 16
103 l-10 32 65 0 c79 0 198 23 279 55 33 13 75 23 93 23 35 1 129 28 150 45 7
5 12 33 12 68 0 52 2 58 22 61 32 4 41 66 31 213 -8 127 -8 544 0 705 3 52 9
186 14 297 5 111 13 206 17 210 5 4 6 -46 2 -112 -5 -94 -3 -148 13 -250 10
-71 24 -143 30 -158 6 -16 11 -44 11 -62 0 -19 9 -58 21 -87 15 -39 26 -107
40 -258 10 -113 21 -218 24 -235 4 -16 9 -95 12 -175 5 -134 7 -146 30 -177
16 -20 34 -33 48 -33 25 0 35 -22 35 -76 0 -17 7 -38 17 -45 9 -8 22 -28 29
-46 41 -97 213 -132 288 -58 24 25 -9 112 -71 184 l-35 42 20 22 c19 21 20 29
12 217 -5 107 -14 270 -20 363 -10 156 -13 170 -39 215 -29 47 -29 49 -36 262
-9 303 -23 585 -33 655 -8 55 -7 64 16 100 23 37 24 44 19 140 -4 55 -9 117
-13 137 -5 31 -3 39 12 45 26 9 194 152 194 164 0 5 15 18 33 29 20 12 38 34
46 57 16 43 101 159 137 186 15 12 24 29 24 46 0 15 9 36 20 46 27 25 25 45
-10 91 -16 21 -30 49 -30 61 0 28 -37 113 -49 113 -5 0 -18 15 -29 34 -11 19
-33 40 -48 48 -19 9 -30 23 -35 45 -3 17 -22 53 -41 80 -19 26 -48 81 -64 122
-30 79 -74 123 -135 136 -27 6 -29 9 -23 41 5 27 3 34 -10 34 -9 0 -21 -10
-27 -23 -9 -19 -16 -22 -42 -19 -39 6 -94 39 -108 64 -8 15 -17 18 -39 13 -22
-5 -32 -1 -48 19 -15 20 -29 26 -57 26 -31 0 -36 3 -30 18 4 9 17 54 28 99 18
72 19 90 8 136 -12 55 -52 107 -122 158 -54 41 -153 72 -171 54z m-1016 -257
c-7 -7 -12 -8 -12 -2 0 14 12 26 19 19 2 -3 -1 -11 -7 -17z m-454 -270 c7 -7
12 -16 12 -20 0 -15 -15 -8 -28 12 -13 22 -3 27 16 8z m864 -120 c-6 -6 -7 0
-4 19 5 21 7 23 10 9 2 -10 0 -22 -6 -28z m-702 -81 c0 -5 -4 -5 -10 -2 -5 3
-10 14 -10 23 0 15 2 15 10 2 5 -8 10 -19 10 -23z m-2593 -92 c-4 -8 -11 -15
-17 -15 -14 0 -13 27 3 33 16 6 21 1 14 -18z m61 -49 c44 -23 67 -86 31 -86
-12 0 -109 90 -109 101 0 10 33 17 40 8 3 -3 20 -14 38 -23z m2519 12 c-3 -8
-6 -5 -6 6 -1 11 2 17 5 13 3 -3 4 -12 1 -19z m-1813 -190 c4 -18 9 -47 12
-63 2 -17 13 -57 23 -88 11 -31 16 -57 12 -57 -13 0 -57 61 -66 90 -4 14 -20
48 -35 76 l-29 51 22 11 c39 19 54 14 61 -20z m2796 -130 c0 -74 5 -102 22
-138 18 -38 22 -66 24 -180 1 -74 3 -146 4 -160 1 -23 -7 -81 -29 -210 -5 -30
-10 -111 -10 -180 -1 -69 -5 -139 -10 -156 -12 -41 10 -91 43 -100 23 -5 25
-10 30 -97 3 -51 8 -186 11 -302 4 -155 9 -217 20 -239 18 -35 19 -58 3 -74
-9 -9 -7 -21 6 -50 14 -30 15 -44 7 -59 -6 -12 -8 -49 -4 -92 5 -60 3 -74 -12
-91 -15 -17 -16 -24 -7 -46 16 -33 15 -100 -1 -155 -10 -33 -11 -72 -5 -153 7
-95 6 -112 -8 -127 -13 -14 -15 -32 -12 -81 6 -76 3 -79 -112 -138 -92 -46
-130 -75 -131 -99 -1 -19 -33 51 -43 92 -6 26 -3 30 35 45 l41 16 -5 56 c-4
31 -15 77 -25 101 -11 24 -21 78 -24 119 -4 56 -13 92 -36 140 -20 43 -33 89
-37 135 -4 39 -12 79 -19 90 -7 11 -15 31 -18 45 -3 14 -15 61 -27 105 -11 44
-21 107 -21 140 -1 33 -5 81 -9 106 -10 65 3 105 113 322 116 228 166 374 166
479 0 71 -8 112 -55 278 -41 142 -47 181 -41 265 4 44 0 157 -8 250 l-14 170
26 22 c28 24 83 40 140 42 l32 1 0 -92z m1000 -74 c0 -26 34 -71 60 -79 11 -4
25 -15 30 -25 9 -16 2 -29 -37 -74 -27 -30 -67 -78 -91 -105 -24 -28 -48 -51
-53 -51 -12 0 -12 81 2 210 5 58 13 129 15 159 l6 53 34 -33 c19 -18 34 -43
34 -55z m-1850 -139 c0 -24 5 -35 15 -35 19 0 37 -68 31 -117 -3 -21 -11 -96
-17 -166 -9 -102 -14 -126 -24 -115 -7 7 -18 36 -24 63 -7 28 -33 101 -57 163
l-45 113 22 37 c22 37 77 92 92 92 4 0 7 -16 7 -35z m-884 -53 c23 -33 38
-131 27 -183 -6 -30 -8 -27 -50 61 -41 84 -43 94 -33 126 14 41 27 40 56 -4z
m-1857 -54 c12 -34 31 -72 42 -85 16 -16 19 -26 12 -35 -6 -7 -14 -42 -17 -77
-4 -36 -18 -86 -32 -113 -14 -27 -22 -53 -19 -58 3 -5 -6 -32 -19 -59 -64
-125 -79 -258 -51 -444 21 -137 38 -198 112 -397 68 -183 106 -334 101 -404
-3 -34 -7 -41 -28 -46 -36 -8 -47 -41 -59 -170 -5 -63 -19 -158 -30 -210 -12
-52 -21 -116 -21 -141 0 -26 -7 -66 -15 -90 -12 -32 -14 -58 -8 -99 8 -59 8
-63 -2 -153 -7 -58 -7 -58 -27 -41 -11 10 -26 33 -33 51 -9 22 -21 33 -34 33
-24 0 -71 64 -71 97 0 12 -7 41 -16 63 -15 36 -15 63 -4 264 14 258 10 321
-31 437 -16 46 -31 88 -32 92 -1 5 15 10 36 11 25 2 47 12 63 28 25 25 25 27
31 249 7 295 6 315 -23 449 -14 63 -28 149 -31 190 l-6 75 52 55 51 55 0 266
0 266 44 1 44 2 21 -62z m721 4 l43 -7 -56 -48 c-61 -52 -63 -51 -69 18 -3 45
2 56 21 50 10 -3 38 -9 61 -13z m1425 -1334 c-4 -139 -10 -257 -13 -262 -16
-28 -24 50 -24 242 0 295 -2 272 23 272 21 0 21 -1 14 -252z m-1891 -910 c7
-50 -2 -90 -37 -150 -14 -23 -29 -65 -33 -93 -6 -45 -8 -47 -16 -25 -16 43 -3
131 33 222 18 49 37 88 40 88 4 0 10 -19 13 -42z"/>
<path d="M4025 4830 c3 -5 16 -15 28 -21 22 -12 22 -12 3 10 -19 21 -43 30
-31 11z"/>
</g>
</svg>
